<?xml version="1.0" encoding="utf-8"?>
<!-- Generator: Adobe Illustrator 25.0.0, SVG Export Plug-In . SVG Version: 6.00 Build 0)  -->
<svg version="1.1" id="Layer_1" xmlns="http://www.w3.org/2000/svg" xmlns:xlink="http://www.w3.org/1999/xlink" x="0px" y="0px"
	 viewBox="0 0 500 625" style="enable-background:new 0 0 500 625;" xml:space="preserve">
<style type="text/css">
	.st0{fill:#59FB79;stroke:#59FB79;stroke-width:5;stroke-miterlimit:10;}
</style>
<path class="st0" d="M244.8,107.3c0-9.3-7.5-16.9-16.7-16.9s-16.7,7.6-16.7,16.9s7.5,16.9,16.7,16.9S244.8,116.6,244.8,107.3z
	 M213.8,107.3c0-5.6,4.5-10.2,10.1-10.2c0.5,0,1,0.1,1.5,0.1c-0.9,1.1-1.5,2.5-1.5,4.1c0,3.5,2.8,6.4,6.4,6.4c1.4,0,2.7-0.5,3.7-1.2
	c0,0.3,0,0.5,0,0.8c0,5.6-4.5,10.2-10.1,10.2C218.3,117.5,213.8,112.9,213.8,107.3z"/>
<path class="st0" d="M361.3,348.6c0.8-28.1-4-61.5-14-95.3c-10.4-35.4-23-59.3-38.3-72.2c0-31.9,0-53.6,0-57.3
	c0-20-11-57.8-52.8-57.8h-44.5c-12.8,0.1-23.1,10.9-23.3,24c-24.6,3.7-44.6,22.4-49,47.2c-0.2,0.8-0.3,1.7-0.4,2.6l-0.7,4.9H153
	c5.5,15.7,19,27.3,35.5,30.5V256c0,32.4,7.5,64.1,21.6,92.6H50v41h186.3v44.2c0,9.8,7.5,18.6,19.5,23.2v29.7
	c0,9.8,7.5,18.6,19.5,23.2v29.7c0,12.3,11.8,22.9,28.7,25.6l5,0.8v-5.1c0-1.7,0-68.6,0.1-149.7c5.3,2.5,10.4,3.9,15.4,3.9
	c2.6,0,5.1-0.4,7.6-1.1c9.7-2.9,17.3-11.3,22.3-24.3H450v-41h-88.7V348.6z M188.5,166.4c-11.7-2.8-21.4-10.9-26.2-21.7h26.2V166.4z
	 M188.5,136h-39.9c4.6-19.3,20.4-33.8,39.9-37.2V136z M197.1,256V90.3c0-8.5,6.6-15.5,14.8-15.6h44.5c35,0,44.2,32.2,44.2,49.2
	c0,3.5,0,22.7,0,51.3c-11.7-6.5-24.9-7.4-39.8-3c-18.3,5.5-29.9,16.1-35.3,32.5c-6.4,19.3-4.2,46.5,6.6,83.3
	c6.6,22.5,14.8,43,23.9,60.7h-36.2C205.1,320.3,197.1,288.5,197.1,256z M58.6,381v-23.7h142c-2.3,3.3-3.7,7.3-3.7,11.6h8.6
	c0-5.1,3.3-9.5,7.9-11c-2,3.2-3.2,7-3.2,11h8.6c0-5.1,3.3-9.5,7.9-11c-2,3.2-3.2,7-3.2,11h8.6c0-6.4,5.2-11.6,11.5-11.6h17.2
	c4.9,8.8,10,16.7,15.3,23.7H58.6z M300.3,555.5c-9.8-2.9-16.5-9.1-16.5-15.9v-36h-0.1v-44.8h-8.6v41.7c-6.7-3.3-10.8-8.4-10.8-13.7
	v-80.9h-8.6v41.8c-6.8-3.3-10.9-8.4-10.9-13.7v-44.2h38c5.8,6.7,11.7,12.3,17.5,16.4C300.4,476.6,300.4,537.5,300.3,555.5z
	 M352.3,357.4c-2.2,27-10.5,44.6-22.8,48.3c-1.7,0.5-3.5,0.8-5.4,0.8c-26.6,0-63.6-52.6-83.7-121c-10.2-34.6-12.4-60.8-6.7-78.1
	c4.5-13.6,13.9-22.2,29.6-26.9c4.8-1.4,9.9-2.5,15.2-2.5c19.9,0,42.1,14.7,60.7,77.9C350,292.5,354.6,328.6,352.3,357.4z M441.4,381
	h-84.3c1.8-6.8,3.1-14.4,3.8-22.9c0-0.3,0-0.5,0.1-0.8h80.5L441.4,381L441.4,381z"/>
</svg>
